<svg xmlns="http://www.w3.org/2000/svg" version="1.1" viewBox="0 0 48 48" shape-rendering="crispEdges"><rect x="8" y="14" width="2" height="2" fill="#3a2a08"/><rect x="38" y="14" width="2" height="2" fill="#3a2a08"/><rect x="6" y="16" width="2" height="2" fill="#3a2a08"/><rect x="8" y="16" width="2" height="2" fill="#c9407a"/><rect x="10" y="16" width="2" height="2" fill="#3a2a08"/><rect x="20" y="16" width="2" height="2" fill="#3a2a08"/><rect x="30" y="16" width="2" height="2" fill="#3a2a08"/><rect x="36" y="16" width="2" height="2" fill="#3a2a08"/><rect x="38" y="16" width="2" height="2" fill="#c9407a"/><rect x="40" y="16" width="2" height="2" fill="#3a2a08"/><rect x="6" y="18" width="2" height="2" fill="#3a2a08"/><rect x="8" y="18" width="2" height="2" fill="#c9407a"/><rect x="10" y="18" width="2" height="2" fill="#3a2a08"/><rect x="18" y="18" width="2" height="2" fill="#3a2a08"/><rect x="20" y="18" width="2" height="2" fill="#c9407a"/><rect x="22" y="18" width="2" height="2" fill="#3a2a08"/><rect x="28" y="18" width="2" height="2" fill="#3a2a08"/><rect x="30" y="18" width="2" height="2" fill="#c9407a"/><rect x="32" y="18" width="2" height="2" fill="#3a2a08"/><rect x="36" y="18" width="2" height="2" fill="#3a2a08"/><rect x="38" y="18" width="2" height="2" fill="#c9407a"/><rect x="40" y="18" width="2" height="2" fill="#3a2a08"/><rect x="4" y="20" width="2" height="2" fill="#3a2a08"/><rect x="6" y="20" width="4" height="2" fill="#f0c445"/><rect x="10" y="20" width="2" height="2" fill="#3a2a08"/><rect x="16" y="20" width="2" height="2" fill="#3a2a08"/><rect x="18" y="20" width="4" height="2" fill="#f0c445"/><rect x="22" y="20" width="2" height="2" fill="#3a2a08"/><rect x="28" y="20" width="2" height="2" fill="#3a2a08"/><rect x="30" y="20" width="4" height="2" fill="#f0c445"/><rect x="34" y="20" width="2" height="2" fill="#3a2a08"/><rect x="38" y="20" width="4" height="2" fill="#f0c445"/><rect x="42" y="20" width="2" height="2" fill="#3a2a08"/><rect x="4" y="22" width="2" height="2" fill="#3a2a08"/><rect x="6" y="22" width="6" height="2" fill="#f0c445"/><rect x="12" y="22" width="2" height="2" fill="#3a2a08"/><rect x="16" y="22" width="2" height="2" fill="#3a2a08"/><rect x="18" y="22" width="4" height="2" fill="#f0c445"/><rect x="22" y="22" width="2" height="2" fill="#3a2a08"/><rect x="26" y="22" width="2" height="2" fill="#3a2a08"/><rect x="28" y="22" width="6" height="2" fill="#f0c445"/><rect x="34" y="22" width="2" height="2" fill="#3a2a08"/><rect x="36" y="22" width="6" height="2" fill="#f0c445"/><rect x="42" y="22" width="2" height="2" fill="#3a2a08"/><rect x="4" y="24" width="2" height="2" fill="#3a2a08"/><rect x="6" y="24" width="8" height="2" fill="#f0c445"/><rect x="14" y="24" width="2" height="2" fill="#3a2a08"/><rect x="16" y="24" width="8" height="2" fill="#f0c445"/><rect x="24" y="24" width="2" height="2" fill="#3a2a08"/><rect x="26" y="24" width="16" height="2" fill="#f0c445"/><rect x="42" y="24" width="2" height="2" fill="#3a2a08"/><rect x="4" y="26" width="2" height="2" fill="#3a2a08"/><rect x="6" y="26" width="36" height="2" fill="#f0c445"/><rect x="42" y="26" width="2" height="2" fill="#3a2a08"/><rect x="4" y="28" width="2" height="2" fill="#3a2a08"/><rect x="6" y="28" width="2" height="2" fill="#f0c445"/><rect x="8" y="28" width="4" height="2" fill="#fff0a8"/><rect x="12" y="28" width="24" height="2" fill="#f0c445"/><rect x="36" y="28" width="4" height="2" fill="#fff0a8"/><rect x="40" y="28" width="2" height="2" fill="#f0c445"/><rect x="42" y="28" width="2" height="2" fill="#3a2a08"/><rect x="4" y="30" width="2" height="2" fill="#3a2a08"/><rect x="6" y="30" width="8" height="2" fill="#f0c445"/><rect x="14" y="30" width="18" height="2" fill="#c9407a"/><rect x="32" y="30" width="10" height="2" fill="#f0c445"/><rect x="42" y="30" width="2" height="2" fill="#3a2a08"/><rect x="4" y="32" width="2" height="2" fill="#3a2a08"/><rect x="6" y="32" width="8" height="2" fill="#f0c445"/><rect x="14" y="32" width="2" height="2" fill="#c9407a"/><rect x="16" y="32" width="14" height="2" fill="#f26aa0"/><rect x="30" y="32" width="2" height="2" fill="#c9407a"/><rect x="32" y="32" width="10" height="2" fill="#f0c445"/><rect x="42" y="32" width="2" height="2" fill="#3a2a08"/><rect x="4" y="34" width="2" height="2" fill="#3a2a08"/><rect x="6" y="34" width="8" height="2" fill="#f0c445"/><rect x="14" y="34" width="18" height="2" fill="#c9407a"/><rect x="32" y="34" width="10" height="2" fill="#f0c445"/><rect x="42" y="34" width="2" height="2" fill="#3a2a08"/><rect x="4" y="36" width="2" height="2" fill="#3a2a08"/><rect x="6" y="36" width="2" height="2" fill="#f0c445"/><rect x="8" y="36" width="32" height="2" fill="#c49a24"/><rect x="40" y="36" width="2" height="2" fill="#f0c445"/><rect x="42" y="36" width="2" height="2" fill="#3a2a08"/><rect x="4" y="38" width="40" height="2" fill="#3a2a08"/></svg>
