<svg xmlns="http://www.w3.org/2000/svg" version="1.1" viewBox="0 0 48 48" shape-rendering="crispEdges"><rect x="8" y="0" width="20" height="2" fill="#26262e"/><rect x="6" y="2" width="2" height="2" fill="#26262e"/><rect x="8" y="2" width="20" height="2" fill="#9aa4b8"/><rect x="28" y="2" width="2" height="2" fill="#26262e"/><rect x="4" y="4" width="2" height="2" fill="#26262e"/><rect x="6" y="4" width="2" height="2" fill="#9aa4b8"/><rect x="8" y="4" width="4" height="2" fill="#d6dde8"/><rect x="12" y="4" width="18" height="2" fill="#9aa4b8"/><rect x="30" y="4" width="2" height="2" fill="#26262e"/><rect x="4" y="6" width="2" height="2" fill="#26262e"/><rect x="6" y="6" width="2" height="2" fill="#9aa4b8"/><rect x="8" y="6" width="2" height="2" fill="#d6dde8"/><rect x="10" y="6" width="20" height="2" fill="#9aa4b8"/><rect x="30" y="6" width="2" height="2" fill="#26262e"/><rect x="4" y="8" width="2" height="2" fill="#26262e"/><rect x="6" y="8" width="24" height="2" fill="#9aa4b8"/><rect x="30" y="8" width="2" height="2" fill="#26262e"/><rect x="4" y="10" width="2" height="2" fill="#26262e"/><rect x="6" y="10" width="10" height="2" fill="#9aa4b8"/><rect x="16" y="10" width="8" height="2" fill="#8a5a2b"/><rect x="24" y="10" width="6" height="2" fill="#9aa4b8"/><rect x="30" y="10" width="2" height="2" fill="#26262e"/><rect x="4" y="12" width="2" height="2" fill="#26262e"/><rect x="6" y="12" width="10" height="2" fill="#9aa4b8"/><rect x="16" y="12" width="2" height="2" fill="#8a5a2b"/><rect x="18" y="12" width="4" height="2" fill="#f0c674"/><rect x="22" y="12" width="2" height="2" fill="#8a5a2b"/><rect x="24" y="12" width="6" height="2" fill="#9aa4b8"/><rect x="30" y="12" width="2" height="2" fill="#26262e"/><rect x="4" y="14" width="2" height="2" fill="#26262e"/><rect x="6" y="14" width="10" height="2" fill="#9aa4b8"/><rect x="16" y="14" width="8" height="2" fill="#8a5a2b"/><rect x="24" y="14" width="6" height="2" fill="#9aa4b8"/><rect x="30" y="14" width="2" height="2" fill="#26262e"/><rect x="4" y="16" width="2" height="2" fill="#26262e"/><rect x="6" y="16" width="2" height="2" fill="#9aa4b8"/><rect x="8" y="16" width="20" height="2" fill="#6b7488"/><rect x="28" y="16" width="2" height="2" fill="#9aa4b8"/><rect x="30" y="16" width="2" height="2" fill="#26262e"/><rect x="6" y="18" width="2" height="2" fill="#26262e"/><rect x="8" y="18" width="2" height="2" fill="#9aa4b8"/><rect x="10" y="18" width="18" height="2" fill="#6b7488"/><rect x="28" y="18" width="2" height="2" fill="#9aa4b8"/><rect x="30" y="18" width="2" height="2" fill="#26262e"/><rect x="8" y="20" width="10" height="2" fill="#26262e"/><rect x="18" y="20" width="4" height="2" fill="#8a5a2b"/><rect x="22" y="20" width="8" height="2" fill="#26262e"/><rect x="18" y="22" width="2" height="2" fill="#26262e"/><rect x="20" y="22" width="2" height="2" fill="#8a5a2b"/><rect x="22" y="22" width="2" height="2" fill="#26262e"/><rect x="18" y="24" width="2" height="2" fill="#26262e"/><rect x="20" y="24" width="2" height="2" fill="#8a5a2b"/><rect x="22" y="24" width="2" height="2" fill="#26262e"/><rect x="18" y="26" width="2" height="2" fill="#26262e"/><rect x="20" y="26" width="2" height="2" fill="#8a5a2b"/><rect x="22" y="26" width="2" height="2" fill="#26262e"/><rect x="18" y="28" width="2" height="2" fill="#26262e"/><rect x="20" y="28" width="2" height="2" fill="#8a5a2b"/><rect x="22" y="28" width="2" height="2" fill="#26262e"/><rect x="18" y="30" width="2" height="2" fill="#26262e"/><rect x="20" y="30" width="2" height="2" fill="#8a5a2b"/><rect x="22" y="30" width="2" height="2" fill="#26262e"/><rect x="18" y="32" width="2" height="2" fill="#26262e"/><rect x="20" y="32" width="2" height="2" fill="#8a5a2b"/><rect x="22" y="32" width="2" height="2" fill="#26262e"/><rect x="16" y="34" width="2" height="2" fill="#26262e"/><rect x="18" y="34" width="2" height="2" fill="#6b7488"/><rect x="20" y="34" width="2" height="2" fill="#8a5a2b"/><rect x="22" y="34" width="2" height="2" fill="#6b7488"/><rect x="24" y="34" width="2" height="2" fill="#26262e"/><rect x="16" y="36" width="2" height="2" fill="#26262e"/><rect x="18" y="36" width="2" height="2" fill="#6b7488"/><rect x="20" y="36" width="2" height="2" fill="#8a5a2b"/><rect x="22" y="36" width="2" height="2" fill="#6b7488"/><rect x="24" y="36" width="2" height="2" fill="#26262e"/><rect x="18" y="38" width="6" height="2" fill="#26262e"/></svg>
